<svg xmlns="http://www.w3.org/2000/svg" viewBox="0 0 48 48">
  <rect width="48" height="48" rx="8" fill="#176f67" />
  <path d="M13 31.5V16.5H19.2C24.4 16.5 27.8 19.5 27.8 24C27.8 28.5 24.4 31.5 19.2 31.5H13ZM17.2 27.9H19C21.8 27.9 23.5 26.5 23.5 24C23.5 21.5 21.8 20.1 19 20.1H17.2V27.9Z" fill="white" />
  <path d="M30.2 31.5V16.5H35.3C39.1 16.5 41.6 18.6 41.6 21.8C41.6 25 39.1 27.1 35.3 27.1H34.4V31.5H30.2ZM34.4 23.6H35.1C36.6 23.6 37.4 23 37.4 21.8C37.4 20.7 36.6 20.1 35.1 20.1H34.4V23.6Z" fill="#d94f66" />
</svg>
